# xmcd
#
# Track frame offsets: 
#        150
#        14455
#        30985
#        47355
#        61885
#        78907
#        94452
#        110185
#        123057
#        137455
#        154902
#        167332
#        182155
#
# Disc length: 2619 seconds
#
# Revision: 11
# Processed by: cddbd v1.5.2PL0 Copyright (c) Steve Scherf et al.
# Submitted via: ExactAudioCopy v0.99pb5
#
DISCID=9a0a390d
DTITLE=Rod Stewart - Thanks For The Memory... The Great American Songb
DTITLE=ook Vol.IV)
DYEAR=2005
DGENRE=Jazz
TTITLE0=I've Got A Crush On You (Duet with Diana Ross)
TTITLE1=I Wish You Love (feat. Chris Botti)
TTITLE2=You Send Me (Duet with Chaka Khan)
TTITLE3=Long Ago And Far Away
TTITLE4=Makin' Whoopee (Duet with Elton John)
TTITLE5=My One And Only Love (feat. Roy Hargrove)
TTITLE6=Taking A Chance On Love
TTITLE7=My Funny Valentine
TTITLE8=I've Got My Love To Keep Me Warm
TTITLE9=Nevertheless (feat. Dave Koz)
TTITLE10=Blue Skies
TTITLE11=Let's Fall In Love (feat. George Benson)
TTITLE12=Thanks For The Memory
EXTD=Check Walmart.com for verification, the order is incorrect on the
EXTD=CD. YEAR: 2007
EXTT0=
EXTT1=
EXTT2=
EXTT3=
EXTT4=
EXTT5=
EXTT6=
EXTT7=
EXTT8=
EXTT9=
EXTT10=
EXTT11=
EXTT12=
PLAYORDER=
